# Blender v2.90.1 OBJ File: 'cornell_box.blend'
# www.blender.org
mtllib cornell_box.mtl
o Light
v -213.000000 227.000015 547.799988
v -213.000000 332.000000 547.799988
v -343.000000 227.000000 547.799988
v -343.000000 332.000000 547.799988
vn 0.0000 0.0000 -1.0000
usemtl Emitter
s off
f 1//1 3//1 4//1 2//1
o large_box
v -422.352661 247.760956 0.000046
v -422.352661 247.761017 330.000061
v -471.239044 405.352661 330.000000
v -471.239044 405.352600 0.000015
v -264.761017 296.647339 0.000046
v -264.761017 296.647400 330.000061
v -313.647400 454.239044 330.000000
v -313.647400 454.238983 0.000015
vn 0.2963 -0.9551 0.0000
vn -0.0000 0.0000 1.0000
vn -0.2963 0.9551 -0.0000
vn 0.0000 -0.0000 -1.0000
vn -0.9551 -0.2963 0.0000
vn 0.9551 0.2963 -0.0000
usemtl box_Material
s off
f 9//2 10//2 6//2 5//2
f 10//3 11//3 7//3 6//3
f 11//4 12//4 8//4 7//4
f 12//5 9//5 5//5 8//5
f 5//6 6//6 7//6 8//6
f 12//7 11//7 10//7 9//7
o small_box
v -129.536377 66.353592 0.000000
v -129.536377 66.353577 165.000015
v -287.646423 113.536346 165.000015
v -287.646423 113.536362 0.000000
v -82.353600 224.463654 0.000015
v -82.353600 224.463638 165.000031
v -240.463654 271.646423 165.000031
v -240.463654 271.646423 0.000015
vn 0.9582 -0.2860 -0.0000
vn 0.0000 -0.0000 1.0000
vn -0.9582 0.2860 0.0000
vn 0.0000 0.0000 -1.0000
vn -0.2860 -0.9582 -0.0000
vn 0.2860 0.9582 0.0000
usemtl box_Material
s off
f 17//8 18//8 14//8 13//8
f 18//9 19//9 15//9 14//9
f 19//10 20//10 16//10 15//10
f 20//11 17//11 13//11 16//11
f 13//12 14//12 15//12 16//12
f 20//13 19//13 18//13 17//13
o cornell_box
v -549.600037 559.199951 0.000042
v -552.799988 -0.000083 0.000000
v -0.000084 559.200012 0.000042
v 0.000000 0.000000 0.000000
v 0.000000 -0.000041 548.799988
v -0.000084 559.199951 548.800049
v -556.000061 559.199890 548.800049
v -556.000000 -0.000125 548.799988
vn 0.0000 -0.0000 1.0000
vn 0.0000 0.0000 -1.0000
vn 0.0000 -1.0000 0.0000
vn 1.0000 -0.0029 0.0087
vn -1.0000 -0.0000 -0.0000
usemtl cbox_Material
s off
f 23//14 21//14 22//14 24//14
f 27//15 26//15 25//15 28//15
f 23//16 26//16 27//16 21//16
usemtl cbox_red
f 21//17 27//17 28//17 22//17
usemtl cbox_green
f 24//18 25//18 26//18 23//18
