# Blender v2.92.0 OBJ File: ''
# www.blender.org
mtllib CornellBoxNoLight.mtl
o back_wall
v -5.835598 -2.950011 -0.162685
v -5.839966 2.545988 5.325315
v -5.839966 -3.014012 5.325314
v -5.835598 2.545989 -0.162685
vn 1.0000 -0.0000 0.0008
usemtl Khaki
s 1
f 1//1 2//1 3//1
f 1//1 4//1 2//1
o ceiling
v -5.839967 -3.014012 5.325314
v -0.247968 2.545988 5.329765
v -0.247968 -3.014012 5.329764
v -5.839967 2.545988 5.325315
vn 0.0008 0.0000 -1.0000
usemtl Khaki
s 1
f 5//2 6//2 7//2
f 5//2 8//2 6//2
o floor
v -0.243599 2.545989 -0.158233
v -5.835598 -2.950011 -0.162685
v -0.243599 -2.982011 -0.158233
v -5.835598 2.545989 -0.162685
vn -0.0008 -0.0000 1.0000
usemtl Khaki
s 1
f 9//3 10//3 11//3
f 9//3 12//3 10//3
o left_wall
v -0.243599 -2.982011 -0.158233
v -5.839967 -3.014012 5.325314
v -0.247968 -3.014012 5.329764
v -5.835598 -2.950011 -0.162685
vn 0.0028 1.0000 0.0087
vn 0.0029 1.0000 0.0088
vn -0.0000 1.0000 0.0058
vn 0.0057 0.9999 0.0117
usemtl BloodyRed
s 1
f 13//4 14//5 15//6
f 13//4 16//7 14//5
o right_wall
v -0.243599 2.545989 -0.158233
v -5.839967 2.545988 5.325315
v -5.835598 2.545989 -0.162685
v -0.247968 2.545988 5.329765
vn 0.0000 -1.0000 -0.0000
usemtl DarkGreen
s 1
f 17//8 18//8 19//8
f 17//8 20//8 18//8
o short_box
v -0.894913 1.245989 1.491249
v -2.964912 0.145989 1.489601
v -1.384912 -0.354011 1.490859
v -1.384912 -0.354011 1.490859
v -2.963598 0.145989 -0.160399
v -1.383599 -0.354011 -0.159141
v -0.894913 1.245989 1.491249
v -1.383599 -0.354011 -0.159141
v -0.893599 1.245989 -0.158750
v -2.494912 1.725989 1.489975
v -0.893599 1.245989 -0.158750
v -2.493598 1.725989 -0.160024
v -2.964912 0.145989 1.489601
v -2.493598 1.725989 -0.160024
v -2.963598 0.145989 -0.160399
v -2.494912 1.725989 1.489975
v -2.964912 0.145989 1.489601
v -1.384912 -0.354011 1.490859
v -0.894913 1.245989 1.491249
v -2.494912 1.725989 1.489975
vn -0.0008 0.0000 1.0000
vn -0.3017 -0.9534 -0.0002
vn 0.9562 -0.2928 0.0008
vn 0.2873 0.9578 0.0002
vn -0.9585 0.2851 -0.0008
usemtl Khaki
s 1
f 21//9 22//9 23//9
f 24//10 25//10 26//10
f 27//11 28//11 29//11
f 30//12 31//12 32//12
f 33//13 34//13 35//13
f 21//9 36//9 22//9
f 24//10 37//10 25//10
f 27//11 38//11 28//11
f 30//12 39//12 31//12
f 33//13 40//13 34//13
o tall_box
v -3.206226 -0.104012 3.139410
v -4.306225 -2.174011 3.138534
v -2.716226 -1.684011 3.139800
v -2.713598 -1.684011 -0.160200
v -4.306225 -2.174011 3.138534
v -4.303598 -2.174011 -0.161465
v -4.306225 -2.174011 3.138534
v -4.803598 -0.594011 -0.161863
v -4.303598 -2.174011 -0.161465
v -4.806225 -0.594012 3.138136
v -3.203598 -0.104011 -0.160589
v -4.803598 -0.594011 -0.161863
v -3.206226 -0.104012 3.139410
v -2.713598 -1.684011 -0.160200
v -3.203598 -0.104011 -0.160589
v -4.806225 -0.594012 3.138136
v -2.716226 -1.684011 3.139800
v -4.806225 -0.594012 3.138136
v -3.206226 -0.104012 3.139410
v -2.716226 -1.684011 3.139800
vn -0.0008 -0.0000 1.0000
vn 0.2945 -0.9556 0.0002
vn -0.9534 -0.3017 -0.0008
vn -0.2928 0.9562 -0.0002
vn 0.9551 0.2962 0.0008
usemtl Khaki
s 1
f 41//14 42//14 43//14
f 44//15 45//15 46//15
f 47//16 48//16 49//16
f 50//17 51//17 52//17
f 53//18 54//18 55//18
f 41//14 56//14 42//14
f 44//15 57//15 45//15
f 47//16 58//16 48//16
f 50//17 59//17 51//17
f 53//18 60//18 54//18
