# Blender v2.90.1 OBJ File: 'CubeREND.blend'
# www.blender.org
o Cube
v 2.229323 3.131398 3.621871
v 1.705496 2.802327 1.719947
v 2.688620 1.196034 3.830229
v 2.164792 0.866963 1.928304
v 0.354583 2.749196 4.204340
v -0.169245 2.420125 2.302416
v 0.813879 0.813832 4.412698
v 0.290051 0.484761 2.510773
vn 0.2619 0.1645 0.9510
vn 0.2296 -0.9677 0.1042
vn -0.9374 -0.1911 0.2912
vn -0.2619 -0.1645 -0.9510
vn 0.9374 0.1911 -0.2912
vn -0.2296 0.9677 -0.1042
s off
f 5//1 3//1 1//1
f 3//2 8//2 4//2
f 7//3 6//3 8//3
f 2//4 8//4 6//4
f 1//5 4//5 2//5
f 5//6 2//6 6//6
f 5//1 7//1 3//1
f 3//2 7//2 8//2
f 7//3 5//3 6//3
f 2//4 4//4 8//4
f 1//5 3//5 4//5
f 5//6 1//6 2//6
o Icosphere
v 0.000000 0.000000 -2.000000
v 0.850645 -0.618023 -1.701308
v -0.324911 -0.999991 -1.701309
v 1.447215 -1.051451 -0.894439
v 1.701296 0.000000 -1.051472
v -1.051460 0.000000 -1.701303
v -0.324911 0.999991 -1.701309
v 0.850645 0.618023 -1.701308
v 1.902116 -0.618025 -0.000000
v -0.552776 -1.701298 -0.894440
v 0.525738 -1.618023 -1.051475
v 0.000000 -2.000000 -0.000000
v -1.788852 0.000000 -0.894431
v -1.376379 -0.999994 -1.051472
v -1.902116 -0.618025 -0.000000
v -0.552776 1.701298 -0.894440
v -1.376379 0.999994 -1.051472
v -1.175571 1.618033 0.000000
v 1.447215 1.051451 -0.894439
v 0.525738 1.618023 -1.051475
v 1.175571 1.618033 0.000000
v 1.175571 -1.618033 -0.000000
v -1.175571 -1.618033 -0.000000
v -1.902116 0.618025 0.000000
v 0.000000 2.000000 0.000000
v 1.902116 0.618025 0.000000
v 0.552776 -1.701298 0.894440
v 1.376379 -0.999994 1.051472
v 0.324911 -0.999991 1.701309
v -1.447215 -1.051451 0.894439
v -0.525738 -1.618023 1.051475
v -0.850645 -0.618023 1.701308
v -1.447215 1.051451 0.894439
v -1.701296 -0.000000 1.051472
v -0.850645 0.618023 1.701308
v 0.552776 1.701298 0.894440
v -0.525738 1.618023 1.051475
v 0.324911 0.999991 1.701309
v 1.788852 -0.000000 0.894431
v 1.376379 0.999994 1.051472
v 1.051460 -0.000000 1.701303
v 0.000000 -0.000000 2.000000
vn 0.0000 0.0000 -1.0000
vn 0.4253 -0.3090 -0.8506
vn -0.1625 -0.5000 -0.8506
vn 0.7236 -0.5257 -0.4472
vn 0.8506 0.0000 -0.5257
vn -0.5257 0.0000 -0.8506
vn -0.1625 0.5000 -0.8506
vn 0.4253 0.3090 -0.8506
vn 0.9510 -0.3090 0.0000
vn -0.2764 -0.8506 -0.4472
vn 0.2629 -0.8090 -0.5257
vn 0.0000 -1.0000 0.0000
vn -0.8944 0.0000 -0.4472
vn -0.6882 -0.5000 -0.5257
vn -0.9510 -0.3090 0.0000
vn -0.2764 0.8506 -0.4472
vn -0.6882 0.5000 -0.5257
vn -0.5878 0.8090 0.0000
vn 0.7236 0.5257 -0.4472
vn 0.2629 0.8090 -0.5257
vn 0.5878 0.8090 0.0000
vn 0.5878 -0.8090 0.0000
vn -0.5878 -0.8090 0.0000
vn -0.9510 0.3090 0.0000
vn 0.0000 1.0000 0.0000
vn 0.9510 0.3090 0.0000
vn 0.2764 -0.8506 0.4472
vn 0.6882 -0.5000 0.5257
vn 0.1625 -0.5000 0.8506
vn -0.7236 -0.5257 0.4472
vn -0.2629 -0.8090 0.5257
vn -0.4253 -0.3090 0.8506
vn -0.7236 0.5257 0.4472
vn -0.8506 0.0000 0.5257
vn -0.4253 0.3090 0.8506
vn 0.2764 0.8506 0.4472
vn -0.2629 0.8090 0.5257
vn 0.1625 0.5000 0.8506
vn 0.8944 0.0000 0.4472
vn 0.6882 0.5000 0.5257
vn 0.5257 0.0000 0.8506
vn 0.0000 0.0000 1.0000
s 1
f 9//7 10//8 11//9
f 12//10 10//8 13//11
f 9//7 11//9 14//12
f 9//7 14//12 15//13
f 9//7 15//13 16//14
f 12//10 13//11 17//15
f 18//16 19//17 20//18
f 21//19 22//20 23//21
f 24//22 25//23 26//24
f 27//25 28//26 29//27
f 12//10 17//15 30//28
f 18//16 20//18 31//29
f 21//19 23//21 32//30
f 24//22 26//24 33//31
f 27//25 29//27 34//32
f 35//33 36//34 37//35
f 38//36 39//37 40//38
f 41//39 42//40 43//41
f 44//42 45//43 46//44
f 47//45 48//46 49//47
f 49//47 46//44 50//48
f 49//47 48//46 46//44
f 48//46 44//42 46//44
f 46//44 43//41 50//48
f 46//44 45//43 43//41
f 45//43 41//39 43//41
f 43//41 40//38 50//48
f 43//41 42//40 40//38
f 42//40 38//36 40//38
f 40//38 37//35 50//48
f 40//38 39//37 37//35
f 39//37 35//33 37//35
f 37//35 49//47 50//48
f 37//35 36//34 49//47
f 36//34 47//45 49//47
f 34//32 48//46 47//45
f 34//32 29//27 48//46
f 29//27 44//42 48//46
f 33//31 45//43 44//42
f 33//31 26//24 45//43
f 26//24 41//39 45//43
f 32//30 42//40 41//39
f 32//30 23//21 42//40
f 23//21 38//36 42//40
f 31//29 39//37 38//36
f 31//29 20//18 39//37
f 20//18 35//33 39//37
f 30//28 36//34 35//33
f 30//28 17//15 36//34
f 17//15 47//45 36//34
f 29//27 33//31 44//42
f 29//27 28//26 33//31
f 28//26 24//22 33//31
f 26//24 32//30 41//39
f 26//24 25//23 32//30
f 25//23 21//19 32//30
f 23//21 31//29 38//36
f 23//21 22//20 31//29
f 22//20 18//16 31//29
f 20//18 30//28 35//33
f 20//18 19//17 30//28
f 19//17 12//10 30//28
f 17//15 34//32 47//45
f 17//15 13//11 34//32
f 13//11 27//25 34//32
f 16//14 28//26 27//25
f 16//14 15//13 28//26
f 15//13 24//22 28//26
f 15//13 25//23 24//22
f 15//13 14//12 25//23
f 14//12 21//19 25//23
f 14//12 22//20 21//19
f 14//12 11//9 22//20
f 11//9 18//16 22//20
f 13//11 16//14 27//25
f 13//11 10//8 16//14
f 10//8 9//7 16//14
f 11//9 19//17 18//16
f 11//9 10//8 19//17
f 10//8 12//10 19//17
